<svg xmlns="http://www.w3.org/2000/svg" xmlns:xlink="http://www.w3.org/1999/xlink" width="91" height="91" viewBox="0 0 91 91">
  <metadata><?xpacket begin="﻿" id="W5M0MpCehiHzreSzNTczkc9d"?>
<x:xmpmeta xmlns:x="adobe:ns:meta/" x:xmptk="Adobe XMP Core 5.6-c138 79.159824, 2016/09/14-01:09:01        ">
   <rdf:RDF xmlns:rdf="http://www.w3.org/1999/02/22-rdf-syntax-ns#">
      <rdf:Description rdf:about=""/>
   </rdf:RDF>
</x:xmpmeta>
                                                                                                    
                                                                                                    
                                                                                                    
                                                                                                    
                                                                                                    
                                                                                                    
                                                                                                    
                                                                                                    
                                                                                                    
                                                                                                    
                                                                                                    
                                                                                                    
                                                                                                    
                                                                                                    
                                                                                                    
                                                                                                    
                                                                                                    
                                                                                                    
                                                                                                    
                                                                                                    
                           
<?xpacket end="w"?></metadata>
<defs>
    <style>
      .cls-1 {
        fill-rule: evenodd;
        fill: url(#linear-gradient);
        filter: url(#filter);
      }
    </style>
    <linearGradient id="linear-gradient" x1="467.811" y1="1052.81" x2="408.189" y2="993.188" gradientUnits="userSpaceOnUse">
      <stop offset="0" stop-color="#ec2500"/>
      <stop offset="1" stop-color="#ff853a"/>
    </linearGradient>
    <filter id="filter" x="393" y="978" width="91" height="91" filterUnits="userSpaceOnUse">
      <feGaussianBlur result="blur" stdDeviation="5.333" in="SourceAlpha"/>
      <feComposite result="composite"/>
      <feComposite result="composite-2"/>
      <feComposite result="composite-3"/>
      <feFlood result="flood" flood-color="#ff853a" flood-opacity="0.23"/>
      <feComposite result="composite-4" operator="in" in2="composite-3"/>
      <feBlend result="blend" in2="SourceGraphic"/>
      <feBlend result="blend-2" in="SourceGraphic"/>
    </filter>
  </defs>
  <path id="Фигура_16" data-name="Фигура 16" class="cls-1" d="M427.35,1042.88c0.71,0,1.42,0,2.13-.07v2.91c0,5.61,12.07,7.1,19.17,7.1s19.17-1.49,19.17-7.1v-14.2c0-5.61-12.07-7.1-19.17-7.1-0.639,0-1.42,0-2.13.07v-24.21c0-5.609-12.07-7.1-19.17-7.1s-19.17,1.49-19.17,7.1v35.5c0,5.61,12.07,7.1,19.17,7.1h0Zm36.21-4.4c-0.711.92-5.751,2.98-14.91,2.98s-14.2-2.06-14.91-2.98v-2.2c4.189,1.77,10.508,2.34,14.91,2.34s10.72-.57,14.91-2.34v2.2Zm-21.3-31.24c-0.71.92-5.751,2.98-14.91,2.98s-14.2-2.06-14.91-2.98v-2.2c4.189,1.77,10.508,2.34,14.91,2.34s10.721-.57,14.91-2.34v2.2Zm-14.91,7.24c4.4,0,10.721-.57,14.91-2.34v2.2c-0.71.92-5.751,2.98-14.91,2.98s-14.2-2.06-14.91-2.98v-2.2C416.629,1013.91,422.948,1014.48,427.35,1014.48Zm0,7.1c4.4,0,10.721-.57,14.91-2.34v2.2c-0.71.92-5.751,2.98-14.91,2.98s-14.2-2.06-14.91-2.98v-2.2C416.629,1021.01,422.948,1021.58,427.35,1021.58Zm0,7.1a30.112,30.112,0,0,0,3.479-.14,4,4,0,0,0-1.349,2.91c-0.71,0-1.42.07-2.13,0.07-9.159,0-14.2-2.06-14.91-2.98v-2.2c4.189,1.77,10.508,2.34,14.91,2.34h0Zm-14.91,6.96v-2.2c4.189,1.77,10.508,2.34,14.91,2.34,0.71,0,1.42,0,2.13-.07v2.84c-0.71,0-1.42.07-2.13,0.07-9.159,0-14.2-2.06-14.91-2.98h0Zm36.21,12.92c-9.159,0-14.2-2.06-14.91-2.98v-2.2c4.189,1.77,10.508,2.34,14.91,2.34s10.72-.57,14.91-2.34v2.2C462.849,1046.5,457.808,1048.56,448.65,1048.56Zm14.768-17.04c-1.137.99-6.106,2.84-14.768,2.84s-13.632-1.85-14.768-2.84c1.136-.99,6.106-2.84,14.768-2.84S462.282,1030.53,463.418,1031.52ZM427.35,997.44c8.662,0,13.632,1.845,14.768,2.84-1.136.99-6.106,2.84-14.768,2.84s-13.632-1.85-14.768-2.84C413.718,999.286,418.688,997.44,427.35,997.44Z" transform="translate(-393 -978)"/>
</svg>
