<svg xmlns="http://www.w3.org/2000/svg" width="191" height="191.03" viewBox="0 0 191 191.03">
  <metadata><?xpacket begin="﻿" id="W5M0MpCehiHzreSzNTczkc9d"?>
<x:xmpmeta xmlns:x="adobe:ns:meta/" x:xmptk="Adobe XMP Core 5.6-c138 79.159824, 2016/09/14-01:09:01        ">
   <rdf:RDF xmlns:rdf="http://www.w3.org/1999/02/22-rdf-syntax-ns#">
      <rdf:Description rdf:about=""/>
   </rdf:RDF>
</x:xmpmeta>
                                                                                                    
                                                                                                    
                                                                                                    
                                                                                                    
                                                                                                    
                                                                                                    
                                                                                                    
                                                                                                    
                                                                                                    
                                                                                                    
                                                                                                    
                                                                                                    
                                                                                                    
                                                                                                    
                                                                                                    
                                                                                                    
                                                                                                    
                                                                                                    
                                                                                                    
                                                                                                    
                           
<?xpacket end="w"?></metadata>
<defs>
    <style>
      .cls-1 {
        fill: #282828;
        fill-rule: evenodd;
      }
    </style>
  </defs>
  <path id="Фигура_660" data-name="Фигура 660" class="cls-1" d="M823,3366.83v-13.79a7.625,7.625,0,0,0-6.488-7.58,66,66,0,0,1-15.506-4.15,7.635,7.635,0,0,0-9.435,3.31l-6.9,11.95a7.67,7.67,0,0,0,3.616,10.89,95.161,95.161,0,0,0,26.109,6.99A7.686,7.686,0,0,0,823,3366.83Zm27.987-25.52a65.984,65.984,0,0,1-15.5,4.15,7.624,7.624,0,0,0-6.488,7.58v13.79a7.686,7.686,0,0,0,8.606,7.62,95.17,95.17,0,0,0,26.109-6.99,7.67,7.67,0,0,0,3.616-10.89l-6.9-11.95A7.636,7.636,0,0,0,850.989,3341.31ZM738.169,3276h13.787a7.625,7.625,0,0,0,7.577-6.49,66.545,66.545,0,0,1,4.148-15.5,7.642,7.642,0,0,0-3.3-9.44l-11.955-6.9a7.673,7.673,0,0,0-10.891,3.61,95.61,95.61,0,0,0-6.984,26.11A7.683,7.683,0,0,0,738.169,3276Zm62.839-59.32a66.988,66.988,0,0,1,15.506-4.15,7.625,7.625,0,0,0,6.488-7.58v-13.78a7.681,7.681,0,0,0-8.606-7.62,95.5,95.5,0,0,0-26.109,6.98,7.67,7.67,0,0,0-3.616,10.89l6.9,11.96A7.641,7.641,0,0,0,801.008,3216.68ZM829,3191.17v13.78a7.624,7.624,0,0,0,6.488,7.58,66.967,66.967,0,0,1,15.5,4.15,7.642,7.642,0,0,0,9.436-3.3l6.9-11.96a7.67,7.67,0,0,0-3.616-10.89,95.511,95.511,0,0,0-26.109-6.98A7.68,7.68,0,0,0,829,3191.17Zm-65.315,112.82a66.759,66.759,0,0,1-4.148-15.51,7.625,7.625,0,0,0-7.577-6.49H738.169a7.688,7.688,0,0,0-7.621,8.61,95.514,95.514,0,0,0,6.984,26.11,7.673,7.673,0,0,0,10.891,3.61l11.955-6.9A7.626,7.626,0,0,0,763.681,3303.99Zm9.516-66.44a67.665,67.665,0,0,1,11.357-11.36,7.618,7.618,0,0,0,1.836-9.8l-6.9-11.95a7.676,7.676,0,0,0-11.261-2.3,96.582,96.582,0,0,0-19.09,19.09,7.675,7.675,0,0,0,2.3,11.26l11.949,6.9A7.636,7.636,0,0,0,773.2,3237.55Zm11.357,94.25a67.665,67.665,0,0,1-11.357-11.36,7.636,7.636,0,0,0-9.809-1.84l-11.949,6.9a7.678,7.678,0,0,0-2.3,11.26,96.632,96.632,0,0,0,19.09,19.1,7.691,7.691,0,0,0,11.261-2.3l6.9-11.95A7.631,7.631,0,0,0,784.554,3331.8Zm94.247-11.36a67.665,67.665,0,0,1-11.357,11.36,7.631,7.631,0,0,0-1.837,9.81l6.9,11.95a7.692,7.692,0,0,0,11.262,2.3,96.6,96.6,0,0,0,19.089-19.1,7.679,7.679,0,0,0-2.3-11.26l-11.95-6.9A7.634,7.634,0,0,0,878.8,3320.44Zm-11.357-94.25a67.665,67.665,0,0,1,11.357,11.36,7.634,7.634,0,0,0,9.808,1.84l11.95-6.9a7.676,7.676,0,0,0,2.3-11.26,96.55,96.55,0,0,0-19.089-19.09,7.677,7.677,0,0,0-11.262,2.3l-6.9,11.95A7.618,7.618,0,0,0,867.444,3226.19Zm20.873,27.82a66.5,66.5,0,0,1,4.147,15.5,7.626,7.626,0,0,0,7.577,6.49h13.788a7.683,7.683,0,0,0,7.621-8.61,95.61,95.61,0,0,0-6.984-26.11,7.673,7.673,0,0,0-10.891-3.61l-11.955,6.9A7.641,7.641,0,0,0,888.317,3254.01Zm25.512,27.98H900.041a7.626,7.626,0,0,0-7.577,6.49,66.708,66.708,0,0,1-4.147,15.51,7.625,7.625,0,0,0,3.3,9.43l11.955,6.9a7.673,7.673,0,0,0,10.891-3.61,95.514,95.514,0,0,0,6.984-26.11A7.688,7.688,0,0,0,913.829,3281.99Z" transform="translate(-730.5 -3183.47)"/>
</svg>
