<svg xmlns="http://www.w3.org/2000/svg" xmlns:xlink="http://www.w3.org/1999/xlink" width="84" height="86" viewBox="0 0 84 86">
  <metadata><?xpacket begin="﻿" id="W5M0MpCehiHzreSzNTczkc9d"?>
<x:xmpmeta xmlns:x="adobe:ns:meta/" x:xmptk="Adobe XMP Core 5.6-c138 79.159824, 2016/09/14-01:09:01        ">
   <rdf:RDF xmlns:rdf="http://www.w3.org/1999/02/22-rdf-syntax-ns#">
      <rdf:Description rdf:about=""/>
   </rdf:RDF>
</x:xmpmeta>
                                                                                                    
                                                                                                    
                                                                                                    
                                                                                                    
                                                                                                    
                                                                                                    
                                                                                                    
                                                                                                    
                                                                                                    
                                                                                                    
                                                                                                    
                                                                                                    
                                                                                                    
                                                                                                    
                                                                                                    
                                                                                                    
                                                                                                    
                                                                                                    
                                                                                                    
                                                                                                    
                           
<?xpacket end="w"?></metadata>
<defs>
    <style>
      .cls-1 {
        fill-rule: evenodd;
        fill: url(#linear-gradient);
        filter: url(#filter);
      }
    </style>
    <linearGradient id="linear-gradient" x1="807.062" y1="996.356" x2="859.938" y2="1049.233" gradientUnits="userSpaceOnUse">
      <stop offset="0" stop-color="#ec2500"/>
      <stop offset="1" stop-color="#ff853a"/>
    </linearGradient>
    <filter id="filter" x="792" y="980" width="84" height="86" filterUnits="userSpaceOnUse">
      <feGaussianBlur result="blur" stdDeviation="5.333" in="SourceAlpha"/>
      <feComposite result="composite"/>
      <feComposite result="composite-2"/>
      <feComposite result="composite-3"/>
      <feFlood result="flood" flood-color="#ff853a" flood-opacity="0.23"/>
      <feComposite result="composite-4" operator="in" in2="composite-3"/>
      <feBlend result="blend" in2="SourceGraphic"/>
      <feBlend result="blend-2" in="SourceGraphic"/>
    </filter>
  </defs>
  <path id="Фигура_623" data-name="Фигура 623" class="cls-1" d="M837.3,1026.22a2.516,2.516,0,1,1,.136,5.03l-1.3.05q-1.967.09-3.61,0.27a5.988,5.988,0,0,0-5.287,5.54l-0.014.41v3.77h10.074a2.519,2.519,0,0,1,.293,5.02l-0.293.02H827.218a5.033,5.033,0,0,1-5.023-4.66l-0.014-.38v-3.77a11.024,11.024,0,0,1,9.766-10.95q1.823-.21,3.956-0.3Zm-15.773,2.49a2.525,2.525,0,0,1-2.322,2.7l-1.214.1-0.578.06a5.988,5.988,0,0,0-5.287,5.54l-0.015.41v3.77h5.037a2.519,2.519,0,0,1,.294,5.02l-0.294.02h-5.036a5.035,5.035,0,0,1-5.024-4.66l-0.013-.38v-3.77a11.024,11.024,0,0,1,9.766-10.95l0.643-.07,1.343-.12a2.525,2.525,0,0,1,2.7,2.33h0Zm18.288-32.748c8.347,0,12.592,4.918,12.592,12.588,0,7.3-5.805,15.12-12.592,15.12s-12.593-7.82-12.593-15.12C827.218,1000.88,831.463,995.962,839.811,995.962Zm-15.111,0a2.519,2.519,0,0,1,0,5.038,11.616,11.616,0,0,0-3.135.38,5.82,5.82,0,0,0-2.429,1.29c-1.314,1.2-1.991,3.18-1.991,5.88a12.208,12.208,0,0,0,2.49,6.93,9.281,9.281,0,0,0,2.459,2.33,6.478,6.478,0,0,0,.9.47l0.449,0.16a2.518,2.518,0,1,1-1.459,4.82,10.694,10.694,0,0,1-2.548-1.17,14.125,14.125,0,0,1-3.828-3.58,17.242,17.242,0,0,1-3.5-9.96c0-4,1.137-7.32,3.628-9.6a10.89,10.89,0,0,1,4.465-2.416,16.562,16.562,0,0,1,4.5-.57h0ZM839.811,1001c-5.388,0-7.556,2.51-7.556,7.55,0,4.79,3.93,10.08,7.556,10.08s7.555-5.29,7.555-10.08C847.366,1003.51,845.2,1001,839.811,1001Zm13.057,48.63h0a1.41,1.41,0,0,0,1.394-1.42v-1.27c3.405-.38,5.684-2.34,5.684-5.36,0-3.1-1.743-4.78-5.818-5.9v-4.1a8.854,8.854,0,0,1,1.874.73,1.785,1.785,0,0,0,2.358-.74h0a1.852,1.852,0,0,0-.776-2.57,11.129,11.129,0,0,0-3.322-1.01v-0.22a1.4,1.4,0,0,0-1.394-1.41h0a1.4,1.4,0,0,0-1.394,1.41v0.16c-3.379.36-5.631,2.31-5.631,5.33,0,3.26,1.9,4.76,5.765,5.82v4.32a9.022,9.022,0,0,1-2.974-1.22,1.777,1.777,0,0,0-2.418.53l-0.012.02a1.855,1.855,0,0,0,.628,2.66,13.636,13.636,0,0,0,4.642,1.49v1.33A1.41,1.41,0,0,0,852.868,1049.63Zm-1.26-14.63c-1.475-.54-1.85-1.09-1.85-1.93,0-.92.563-1.58,1.85-1.74V1035Zm2.52,8.54v-3.81c1.448,0.55,1.9,1.09,1.9,2.01C856.032,1042.78,855.388,1043.35,854.128,1043.54Z" transform="translate(-792 -980)"/>
</svg>
