<svg xmlns="http://www.w3.org/2000/svg" xmlns:xlink="http://www.w3.org/1999/xlink" width="92" height="79" viewBox="0 0 92 79">
  <metadata><?xpacket begin="﻿" id="W5M0MpCehiHzreSzNTczkc9d"?>
<x:xmpmeta xmlns:x="adobe:ns:meta/" x:xmptk="Adobe XMP Core 5.6-c138 79.159824, 2016/09/14-01:09:01        ">
   <rdf:RDF xmlns:rdf="http://www.w3.org/1999/02/22-rdf-syntax-ns#">
      <rdf:Description rdf:about=""/>
   </rdf:RDF>
</x:xmpmeta>
                                                                                                    
                                                                                                    
                                                                                                    
                                                                                                    
                                                                                                    
                                                                                                    
                                                                                                    
                                                                                                    
                                                                                                    
                                                                                                    
                                                                                                    
                                                                                                    
                                                                                                    
                                                                                                    
                                                                                                    
                                                                                                    
                                                                                                    
                                                                                                    
                                                                                                    
                                                                                                    
                           
<?xpacket end="w"?></metadata>
<defs>
    <style>
      .cls-1 {
        fill-rule: evenodd;
        fill: url(#linear-gradient);
        filter: url(#filter);
      }
    </style>
    <linearGradient id="linear-gradient" x1="1260.031" y1="1045.75" x2="1212.969" y2="998.688" gradientUnits="userSpaceOnUse">
      <stop offset="0" stop-color="#ec2500"/>
      <stop offset="1" stop-color="#ff853a"/>
    </linearGradient>
    <filter id="filter" x="1191" y="983" width="92" height="79" filterUnits="userSpaceOnUse">
      <feGaussianBlur result="blur" stdDeviation="5.333" in="SourceAlpha"/>
      <feComposite result="composite"/>
      <feComposite result="composite-2"/>
      <feComposite result="composite-3"/>
      <feFlood result="flood" flood-color="#ff853a" flood-opacity="0.23"/>
      <feComposite result="composite-4" operator="in" in2="composite-3"/>
      <feBlend result="blend" in2="SourceGraphic"/>
      <feBlend result="blend-2" in="SourceGraphic"/>
    </filter>
  </defs>
  <path id="Фигура_658" data-name="Фигура 658" class="cls-1" d="M1253.32,1029.29a2.351,2.351,0,0,0,2.17,2.52l1.13,0.1c0.19,0.02.36,0.04,0.54,0.06a5.583,5.583,0,0,1,4.94,5.16l0.01,0.39v3.53h-4.7a2.354,2.354,0,0,0-.28,4.69l0.28,0.01h4.7a4.713,4.713,0,0,0,4.7-4.35l0.01-.35v-3.53a10.306,10.306,0,0,0-9.12-10.23l-0.6-.06-1.26-.11a2.351,2.351,0,0,0-2.52,2.17h0Zm-2.97-30.588a2.354,2.354,0,0,0,0,4.708,10.994,10.994,0,0,1,2.93.35,5.577,5.577,0,0,1,2.27,1.2c1.23,1.13,1.86,2.98,1.86,5.5a11.394,11.394,0,0,1-2.33,6.48,8.617,8.617,0,0,1-2.29,2.17,5.738,5.738,0,0,1-.85.44l-0.42.15a2.352,2.352,0,1,0,1.37,4.5,10.193,10.193,0,0,0,2.38-1.09,13.282,13.282,0,0,0,3.57-3.35,16.076,16.076,0,0,0,3.27-9.3c0-3.73-1.06-6.84-3.39-8.97a10.087,10.087,0,0,0-4.17-2.256,15.468,15.468,0,0,0-4.2-.533h0Zm-13.59,28.228a65.871,65.871,0,0,1,7.35.36,10.3,10.3,0,0,1,9.12,10.23v3.53a4.7,4.7,0,0,1-4.7,4.7H1225a4.7,4.7,0,0,1-4.7-4.7v-3.53a10.3,10.3,0,0,1,9.12-10.23,65.807,65.807,0,0,1,7.34-.36h0Zm-17.08,2.36a2.351,2.351,0,0,1-2.17,2.52l-1.13.1q-0.285.03-.54,0.06a5.583,5.583,0,0,0-4.94,5.16l-0.01.39v3.53h4.7a2.354,2.354,0,0,1,.28,4.69l-0.28.01h-4.7a4.713,4.713,0,0,1-4.7-4.35l-0.01-.35v-3.53a10.306,10.306,0,0,1,9.12-10.23l0.6-.06,1.26-.11a2.351,2.351,0,0,1,2.52,2.17h0Zm17.08,2.35a60.792,60.792,0,0,0-6.81.33,5.584,5.584,0,0,0-4.95,5.55v3.53h23.53v-3.53a5.584,5.584,0,0,0-4.96-5.55,60.666,60.666,0,0,0-6.81-.33h0Zm0-32.938c7.8,0,11.77,4.588,11.77,11.758,0,6.82-5.43,14.12-11.77,14.12s-11.76-7.3-11.76-14.12C1225,1003.29,1228.97,998.7,1236.76,998.7Zm-14.11,0a2.354,2.354,0,0,1,0,4.708,10.994,10.994,0,0,0-2.93.35,5.577,5.577,0,0,0-2.27,1.2c-1.23,1.13-1.86,2.98-1.86,5.5a11.394,11.394,0,0,0,2.33,6.48,8.617,8.617,0,0,0,2.29,2.17,5.738,5.738,0,0,0,.85.44l0.42,0.15a2.352,2.352,0,1,1-1.37,4.5,10.193,10.193,0,0,1-2.38-1.09,13.282,13.282,0,0,1-3.57-3.35,16.076,16.076,0,0,1-3.27-9.3c0-3.73,1.06-6.84,3.39-8.97a10.087,10.087,0,0,1,4.17-2.256,15.468,15.468,0,0,1,4.2-.533h0Zm14.11,4.708c-5.03,0-7.05,2.34-7.05,7.05,0,4.48,3.67,9.41,7.05,9.41s7.06-4.93,7.06-9.41C1243.82,1005.75,1241.8,1003.41,1236.76,1003.41Z" transform="translate(-1191 -983)"/>
</svg>
